<svg xmlns="http://www.w3.org/2000/svg" xmlns:xlink="http://www.w3.org/1999/xlink" viewBox="0 0 865.76 682.89"><defs><clipPath id="a"><path d="M214.53,372.4c-5.78,8.89-31.34,11.78-31.34,11.78l-20.29.13-52.85.32C94.71,386.18,95.6,376,95.6,376c-3.78-17.34,2.89-82.7,2.89-82.7l-30.68-30C87.6,234.57,112.35,226,112.35,226c14.22-7.6,21.67-10.7,25.49-12,3.06-1,3.78-.83,3.78-.83l26.87,5.29,2.65,1.44,21.16,11.52c8.45,4.67,13.79,15.56,13.79,15.56l15.59,23.85-15.59,56C205.64,336.61,214.53,372.4,214.53,372.4Z" fill="#5cab7e"/></clipPath></defs><path d="M750.76,301.18s-11.2-.82-10.17,24.3,3.6,38.47,3.6,38.47-.33,5.51-4.64,4.48-12.4-6.52-16.42-2.47-2.69,10.64,2.82,18.23,17,24.66,18,26.18,1.37,4.36-1.64,4.13-23.69-7.26-26.41,2.75S732,445.85,734,447.93s2.13,3.38,1.38,4.63-7.53-1.75-13.48-3.5-13.15-2.75-14.24,3.17,7.19,23.14,38.24,41.33L760.84,501,775,492c29.07-21.13,35.6-39.13,33.92-44.88s-8.75-4.05-14.49-1.73-12.11,6-13.06,4.84-1-2.49.84-4.75,18.66-22.68,14.94-32.34-23.53-.64-26.54-.06-2.9-2.31-2-3.92,10.57-19.77,15.29-27.87,5.51-14.65,1-18.41-11.91,2.57-16.09,4.13-5.07-4-5.07-4,1.21-13.57-.27-38.65-12.81-23.06-12.81-23.06" fill="#ebebeb"/><path d="M751.64,323.7v.52c0,.35.07.88.13,1.55.09,1.37.22,3.37.4,5.92.34,5.15.78,12.61,1.29,21.82,1,18.42,2.22,43.89,3.44,72s2.37,53.6,3.28,72c.47,9.19.86,16.65,1.12,21.83q.18,3.84.29,5.93a9.56,9.56,0,0,0,.07,1.55,4.51,4.51,0,0,1,0,.52v-.52a7.62,7.62,0,0,0-.13-1.55c-.09-1.37-.23-3.37-.4-5.92-.34-5.15-.78-12.61-1.29-21.82-1-18.42-2.22-43.89-3.45-72s-2.36-53.59-3.29-72c-.45-9.19-.84-16.65-1.1-21.83-.12-2.54-.23-4.54-.29-5.93a9.63,9.63,0,0,0-.07-1.55A4.51,4.51,0,0,1,751.64,323.7Z" fill="#e0e0e0"/><path d="M734.16,374a4.23,4.23,0,0,1,.92.77c.58.52,1.38,1.31,2.37,2.28,2,1.95,4.63,4.72,7.5,7.83l7.3,8,2.23,2.41a5.61,5.61,0,0,1,.77.92,4.84,4.84,0,0,1-.94-.75c-.56-.53-1.37-1.31-2.35-2.29-2-2-4.56-4.78-7.43-7.89l-7.37-7.94-2.23-2.4A5.29,5.29,0,0,1,734.16,374Z" fill="#e0e0e0"/><path d="M756.74,395.72c-.11-.11,5.34-5.84,12.19-12.78s12.5-12.48,12.62-12.4-5.36,5.83-12.21,12.77S756.85,395.83,756.74,395.72Z" fill="#e0e0e0"/><path d="M756.67,439a4.8,4.8,0,0,1,1.05-.67l2.92-1.65c2.46-1.38,5.87-3.3,9.53-5.51s6.89-4.39,9.3-6l2.76-1.86a4.75,4.75,0,0,1,1.06-.64,5.64,5.64,0,0,1-.94.82c-.62.48-1.53,1.18-2.69,2-2.28,1.65-5.51,3.87-9.21,6.13s-7.13,4.13-9.65,5.42c-1.26.65-2.28,1.16-3,1.49A5.6,5.6,0,0,1,756.67,439Z" fill="#e0e0e0"/><path d="M731.93,423.85a4.83,4.83,0,0,1,1,.48c.65.35,1.57.87,2.76,1.51,2.27,1.29,5.38,3.11,8.81,5.15s6.52,3.91,8.75,5.3l2.62,1.65a5,5,0,0,1,.91.68,4.09,4.09,0,0,1-1-.48l-2.75-1.5c-2.27-1.3-5.4-3.12-8.83-5.16s-6.52-3.91-8.73-5.29c-1.12-.68-2-1.26-2.62-1.66A5,5,0,0,1,731.93,423.85Z" fill="#e0e0e0"/><path d="M727.09,462.05a7.57,7.57,0,0,1,1.31.64l3.49,1.93c2.92,1.63,6.89,3.94,11.35,6.5s8.42,4.93,11.28,6.67l3.39,2.06a7.17,7.17,0,0,1,1.2.84,7.9,7.9,0,0,1-1.38-.65l-3.47-1.91c-2.92-1.64-6.89-3.94-11.37-6.52s-8.4-4.91-11.26-6.65l-3.41-2.12A6.21,6.21,0,0,1,727.09,462.05Z" fill="#e0e0e0"/><path d="M758.39,480a8.82,8.82,0,0,1,1.31-.88l3.62-2.2c3.08-1.88,7.29-4.47,11.88-7.46s8.68-5.78,11.61-7.84l3.5-2.42a7.48,7.48,0,0,1,1.38-.84,11.56,11.56,0,0,1-1.2,1c-.78.62-1.94,1.5-3.39,2.57-2.88,2.14-6.89,5-11.53,8s-8.86,5.51-12,7.32c-1.56.89-2.84,1.6-3.72,2A10,10,0,0,1,758.39,480Z" fill="#e0e0e0"/><polygon points="780.85 505.81 739.52 505.81 753.01 607.9 767.36 607.9 780.85 505.81" fill="#e0e0e0"/><path d="M741.67,518.36s0,.13.22.35a2.61,2.61,0,0,0,1,.72,5,5,0,0,0,4.37-.54c1.66-.92,3.12-2.75,5.36-3.52a11.78,11.78,0,0,1,7.6.15,32.08,32.08,0,0,1,7.07,3.43A49.7,49.7,0,0,0,773,522a16.11,16.11,0,0,0,4.24,1.23,9.67,9.67,0,0,0,1.2.08h.42a20.52,20.52,0,0,1-5.67-1.71,54.45,54.45,0,0,1-5.62-3.18,31.56,31.56,0,0,0-7.21-3.54,12.16,12.16,0,0,0-8-.08,10.22,10.22,0,0,0-3,1.86,20.8,20.8,0,0,1-2.37,1.83,4.82,4.82,0,0,1-4,.7A4,4,0,0,1,741.67,518.36Z" fill="#f5f5f5"/><path d="M743.17,537.23a14.15,14.15,0,0,1,1-1.1,9.34,9.34,0,0,1,3.3-2.1,14.64,14.64,0,0,1,5.82-.93,58.34,58.34,0,0,1,7.19,1,24.88,24.88,0,0,0,7.36.3,20.52,20.52,0,0,0,5.79-1.65,19.15,19.15,0,0,0,3.49-2.08,5.45,5.45,0,0,0,1.1-1,36.93,36.93,0,0,1-4.78,2.63,21.34,21.34,0,0,1-5.67,1.47,25.06,25.06,0,0,1-7.18-.36,55.89,55.89,0,0,0-7.29-.93,14.73,14.73,0,0,0-5.94,1,8.86,8.86,0,0,0-3.32,2.36,5.92,5.92,0,0,0-.62.92C743.21,537,743.16,537.15,743.17,537.23Z" fill="#f5f5f5"/><path d="M776.16,547.22a3.24,3.24,0,0,0-1.14-.58,11.84,11.84,0,0,0-3.42-.75,22.49,22.49,0,0,0-5.18.31c-1.92.3-4,.84-6.15,1.29a25.1,25.1,0,0,1-6.16.7,13.29,13.29,0,0,1-4.89-1.06,11.55,11.55,0,0,1-3.71-2.75,3.67,3.67,0,0,0,.7,1.07,9.25,9.25,0,0,0,2.76,2.13,13.63,13.63,0,0,0,5.06,1.23,24,24,0,0,0,6.32-.66c2.19-.45,4.24-1,6.13-1.37a23,23,0,0,1,5-.43A19.21,19.21,0,0,1,776.16,547.22Z" fill="#f5f5f5"/><path d="M746.82,561.38a6.92,6.92,0,0,1,4-.4,19.19,19.19,0,0,1,4.14,1.57,16.08,16.08,0,0,0,15.34-.8,13.67,13.67,0,0,0,2.45-1.89c.51-.53.76-.84.73-.88a33.62,33.62,0,0,1-3.43,2.36,16.93,16.93,0,0,1-9.64,2c-3.91-.22-6.89-2.57-9.64-2.87a6.25,6.25,0,0,0-3.12.26A2.23,2.23,0,0,0,746.82,561.38Z" fill="#f5f5f5"/><path d="M749.13,581a8,8,0,0,0,3.45-.69c2.07-.69,4.64-2.28,7.64-3.48a12.31,12.31,0,0,1,4.4-.91,8,8,0,0,1,3.53.8,7.57,7.57,0,0,1,2.54,2.2,1.69,1.69,0,0,0-.38-.87,5.61,5.61,0,0,0-1.94-1.75,8.08,8.08,0,0,0-3.75-1,12.24,12.24,0,0,0-4.63.91c-3.11,1.24-5.61,2.88-7.59,3.66S749.13,580.87,749.13,581Z" fill="#f5f5f5"/><path d="M751.16,590.1a9.33,9.33,0,0,0,2.62.84,47.85,47.85,0,0,0,13.17,1.3,10.19,10.19,0,0,0,2.75-.32c0-.21-4.13,0-9.3-.54S751.2,589.9,751.16,590.1Z" fill="#f5f5f5"/><polygon points="805.63 15.49 805.63 125.28 663.82 125.28 658.71 16.26 805.63 15.49" fill="#e0e0e0"/><rect x="658.7" y="16.14" width="141.81" height="109.15" fill="#fff"/><path d="M801.05,125.82H658.17V15.61H801.05Zm-141.81-1.07H800V16.67H659.24Z" fill="#e0e0e0"/><rect x="674.07" y="27.35" width="111.09" height="83.57" fill="#fff"/><path d="M785.16,27.35H777l-22.79.18-80.14.12.26-.25V111h0l-.29-.29H785.13l-.24.23c0-25.25.1-46.12.13-60.68v-.14c0,14.59.07,35.5.12,60.82v.24H673.84v-.28h0V27.05h.25l80.32.12h30.77Z" fill="#e0e0e0"/><path d="M658.69,15.87a14.08,14.08,0,0,1,2.4,1.48c1.44,1,3.41,2.34,5.51,3.91s4,3.07,5.36,4.13A12.09,12.09,0,0,1,674,27.31a15.33,15.33,0,0,1-2.31-1.6l-5.51-4-5.44-4A13.44,13.44,0,0,1,658.69,15.87Z" fill="#e0e0e0"/><path d="M800.58,16.12A78.39,78.39,0,0,1,793,22a79,79,0,0,1-7.85,5.38,81.44,81.44,0,0,1,7.5-5.84A82.26,82.26,0,0,1,800.58,16.12Z" fill="#e0e0e0"/><line x1="800.52" y1="125.28" x2="784.59" y2="110.91" fill="none"/><path d="M784.59,110.91a104.29,104.29,0,0,1,8.16,7,102,102,0,0,1,7.83,7.45,102.19,102.19,0,0,1-8.26-7A101.91,101.91,0,0,1,784.59,110.91Z" fill="#e0e0e0"/><path d="M658.69,125.34a101,101,0,0,1,7.41-7.07,93.11,93.11,0,0,1,7.8-6.65,98.76,98.76,0,0,1-7.41,7.06A95.15,95.15,0,0,1,658.69,125.34Z" fill="#e0e0e0"/><path d="M756.4,68.37a13.4,13.4,0,1,1-10.31-15.91A13.39,13.39,0,0,1,756.4,68.37Z" fill="#f5f5f5"/><path d="M738.94,78.32a21.89,21.89,0,0,1,1.17-3.71,22.3,22.3,0,0,0,1.22-9,12.55,12.55,0,0,0-3.92-7.91,23.6,23.6,0,0,0-3.18-2,5.65,5.65,0,0,1,3.65,1.49,12.31,12.31,0,0,1,4.49,8.36,19.72,19.72,0,0,1-1.57,9.38A11,11,0,0,1,738.94,78.32Z" fill="#e0e0e0"/><path d="M756.24,64c0,.3-3.61-1-7.8.26s-6.47,4.21-6.69,4,.3-.92,1.37-2a11.93,11.93,0,0,1,5-3A11.71,11.71,0,0,1,754,63C755.48,63.35,756.29,63.84,756.24,64Z" fill="#e0e0e0"/><path d="M750.19,63.35c-.16,0-.09-.94-.58-2.26A6,6,0,0,0,742,57.2a5.71,5.71,0,0,0-1.13.5c-1.24.63-1.82,1.38-2,1.27s.28-1,1.57-1.91a6.32,6.32,0,0,1,9.8,3.82A3.27,3.27,0,0,1,750.19,63.35Z" fill="#e0e0e0"/><path d="M745.92,64.72c-.3,0-.08-1.9-.62-4S743.77,57,744,56.79s1.72,1.22,2.3,3.65S746.17,64.72,745.92,64.72Z" fill="#e0e0e0"/><path d="M745.8,60.49c0,.31-1.17.38-2.28.95s-2,1.38-2.26,1.15.38-1.28,1.78-2.07S745.85,60.25,745.8,60.49Z" fill="#e0e0e0"/><path d="M724.35,66.78A10.18,10.18,0,1,1,710,68h0A10.17,10.17,0,0,1,724.35,66.78Z" fill="#f5f5f5"/><path d="M724.82,82a17.19,17.19,0,0,1-2.07-2.11,16.91,16.91,0,0,0-5.61-4,9.52,9.52,0,0,0-6.69-.19,17,17,0,0,0-2.51,1.38,4.51,4.51,0,0,1,2.3-1.92,9.3,9.3,0,0,1,7.21,0,15,15,0,0,1,5.71,4.4A8.3,8.3,0,0,1,724.82,82Z" fill="#e0e0e0"/><path d="M721.33,65.32a16.22,16.22,0,0,0-2.6,5.31,15.68,15.68,0,0,0,.29,5.91c-.1,0-.51-.53-.87-1.62a9.07,9.07,0,0,1,1.75-8.45C720.68,65.61,721.26,65.25,721.33,65.32Z" fill="#e0e0e0"/><path d="M718.71,69.12c-.07.11-.66-.26-1.7-.42a4.59,4.59,0,0,0-5.39,4.62c0,1.06.27,1.71.15,1.76s-.56-.53-.7-1.73a4.91,4.91,0,0,1,1.62-4.22,5,5,0,0,1,4.43-1C718.27,68.48,718.77,69.06,718.71,69.12Z" fill="#e0e0e0"/><path d="M718.13,72.49c-.15.18-1.29-.62-2.92-1s-3-.3-3.05-.52a3.79,3.79,0,0,1,3.25-.25C717.24,71.16,718.29,72.36,718.13,72.49Z" fill="#e0e0e0"/><path d="M715.28,71.07c.21.13-.16.91-.18,1.86s.2,1.86,0,1.93-.71-.71-.74-1.94S715.17,71,715.28,71.07Z" fill="#e0e0e0"/><path d="M724.82,63.35c-3.6-2.35-5.8-6.52-7.24-10.57a19.85,19.85,0,0,1-.16-12.65,16.54,16.54,0,0,1,8.65,9.25c1.5,4.06.62,10-1.25,14" fill="#ebebeb"/><path d="M720.6,46.7a144.07,144.07,0,0,1,3.86,16" fill="#fff"/><path d="M724.46,62.68a11.12,11.12,0,0,1-.65-2.32c-.39-1.67-.84-3.56-1.38-5.65s-1-4-1.37-5.64a10,10,0,0,1-.49-2.37,10.35,10.35,0,0,1,.87,2.26c.46,1.38,1,3.39,1.56,5.61s.93,4.24,1.17,5.7A10.32,10.32,0,0,1,724.46,62.68Z" fill="#e0e0e0"/><path d="M733.88,81.53c4.2-.88,8.71.5,12.59,2.36a19.74,19.74,0,0,1,9,8.83,16.54,16.54,0,0,1-12.64-.43c-3.94-1.82-7.55-6.67-9-10.76" fill="#ebebeb"/><path d="M748.55,90.29a145.49,145.49,0,0,1-14-8.57" fill="#fff"/><path d="M734.53,81.72a11,11,0,0,1,2.11,1.19L741.57,86l5,3a10.24,10.24,0,0,1,2,1.38,10.33,10.33,0,0,1-2.2-1c-1.38-.68-3.13-1.68-5.07-2.87s-3.67-2.34-4.88-3.21A10,10,0,0,1,734.53,81.72Z" fill="#e0e0e0"/><path d="M729.82,83.53a12.16,12.16,0,0,1-.68,7.62,11.88,11.88,0,0,1-4.71,5.91,9.81,9.81,0,0,1-.5-7.55,12,12,0,0,1,5.89-6" fill="#ebebeb"/><path d="M725.45,92.77a87.75,87.75,0,0,1,4.28-8.84" fill="#fff"/><path d="M729.73,83.93a29.37,29.37,0,0,1-2,4.47,28.74,28.74,0,0,1-2.27,4.37,18.42,18.42,0,0,1,1.76-4.63A16.8,16.8,0,0,1,729.73,83.93Z" fill="#e0e0e0"/><rect x="102.91" y="301.98" width="152.74" height="288.72" fill="#e0e0e0"/><rect x="57.57" y="301.98" width="152.74" height="288.72" fill="#f5f5f5"/><path d="M199.06,361.41H68V315.65H199.06ZM69.57,359.8H197.44V317.26H69.58Z" fill="#e0e0e0"/><path d="M109.53,316.46h49.76v2.3a6.82,6.82,0,0,1-6.82,6.82H116.34a6.82,6.82,0,0,1-6.82-6.82h0v-2.3Z" fill="#ebebeb"/><path d="M199.06,419.55H68V373.78H199.06ZM69.57,417.93H197.44V375.39H69.58Z" fill="#e0e0e0"/><path d="M109.53,374.6h49.76v2.3a6.82,6.82,0,0,1-6.82,6.82H116.34a6.82,6.82,0,0,1-6.82-6.82h0v-2.3Z" fill="#ebebeb"/><path d="M199.06,477.68H68V431.92H199.06ZM69.57,476.07H197.44V433.53H69.58Z" fill="#e0e0e0"/><path d="M109.53,432.73h49.76V435a6.82,6.82,0,0,1-6.82,6.82H116.34a6.82,6.82,0,0,1-6.82-6.82h0v-2.3Z" fill="#ebebeb"/><path d="M199.06,535.84H68V490.05H199.06ZM69.57,534.23H197.44V491.66H69.58Z" fill="#e0e0e0"/><path d="M109.53,490.87h49.76v2.27a6.82,6.82,0,0,1-6.82,6.82H116.35a6.83,6.83,0,0,1-6.82-6.82h0v-2.27Z" fill="#ebebeb"/><rect x="50.8" y="291.18" width="165.89" height="14.38" fill="#ebebeb"/><rect x="216.7" y="291.18" width="49.88" height="14.38" fill="#e0e0e0"/><rect x="57.57" y="590.7" width="8.03" height="14.75" fill="#e0e0e0"/><rect x="107.16" y="590.7" width="8.03" height="14.75" fill="#e0e0e0"/><rect x="197.75" y="590.7" width="8.03" height="14.75" fill="#e0e0e0"/><rect x="243.05" y="590.7" width="8.03" height="14.75" fill="#e0e0e0"/><polygon points="172.88 253.03 188.32 293.59 178.72 293.55 171.01 268.62 172.88 253.03" fill="#e0e0e0"/><polygon points="120.1 215.55 114.8 293.27 169.62 294.45 175.79 215.55 120.1 215.55" fill="#ebebeb"/><polygon points="125.58 221.81 121.16 286.5 161.94 288.47 167.63 221.42 125.58 221.81" fill="#fafafa"/><polygon points="134.54 230.95 131.23 276.43 153.71 276.43 157.68 230.95 134.54 230.95" fill="#e0e0e0"/><rect x="96.51" y="18.55" width="98.29" height="162.7" fill="#e0e0e0"/><rect x="93.24" y="18.55" width="98.29" height="162.7" fill="#ebebeb"/><rect x="97.44" y="21.85" width="89.92" height="156.1" fill="#fafafa"/><rect x="114.55" y="42.13" width="55.3" height="115.53" fill="#ebebeb"/><path d="M114.55,116.78c-.13-10.8,9.58-21.31,20.27-22.84,5.09-.72,10.5.3,15.27-1.65,8.5-3.55,11.2-14.79,19.76-18.14l.39,83.51H114.6Z" fill="#e0e0e0"/><rect x="392.82" y="120.31" width="271.88" height="543.09" rx="15.52" fill="#53b2c1"/><g opacity="0.2"><rect x="392.82" y="120.31" width="271.88" height="543.09" rx="15.52"/></g><rect x="378.59" y="118.75" width="271.88" height="543.09" rx="16.88" fill="#53b2c1"/><path d="M636.47,163V577.63a27.53,27.53,0,0,1-27.53,27.53H421.24a27.53,27.53,0,0,1-27.53-27.53V163a27.53,27.53,0,0,1,27.53-27.53h28.27v2A18.45,18.45,0,0,0,468,155.88h89.61A18.43,18.43,0,0,0,576,137.43v-2h32.94A27.53,27.53,0,0,1,636.47,163Z" fill="#ebebeb"/><g opacity="0.2"><rect x="497.31" y="135.42" width="35.79" height="5.78" rx="2.89"/></g><g opacity="0.2"><circle cx="485.41" cy="137.54" r="3.67"/></g><path d="M457.87,364.62h19a0,0,0,0,1,0,0v54.24a0,0,0,0,1,0,0H435.73a0,0,0,0,1,0,0v-32.1A22.15,22.15,0,0,1,457.87,364.62Z" fill="#f6cd2f"/><g opacity="0.2"><path d="M457.87,364.62h19a0,0,0,0,1,0,0v54.24a0,0,0,0,1,0,0H435.73a0,0,0,0,1,0,0v-32.1A22.15,22.15,0,0,1,457.87,364.62Z"/></g><polygon points="447.06 346.05 447.06 418.86 591.12 418.86 591.12 334.83 458.53 334.83 447.06 346.05" fill="#fff"/><polygon points="447.06 346.05 459.07 346.05 458.53 334.83 447.06 346.05" fill="#e6e6e6"/><rect x="460.4" y="354.17" width="120.05" height="5.34" rx="2.67" fill="#e6e6e6"/><rect x="460.4" y="366.18" width="120.05" height="5.34" rx="2.67" fill="#e6e6e6"/><rect x="459.96" y="378.18" width="120.05" height="5.34" rx="2.67" fill="#e6e6e6"/><rect x="459.96" y="390.19" width="120.05" height="5.34" rx="2.67" fill="#e6e6e6"/><rect x="459.96" y="402.19" width="120.05" height="5.34" rx="2.67" fill="#e6e6e6"/><path d="M591.12,380.85h0a12.67,12.67,0,0,1,12.67,12.67v25.34a0,0,0,0,1,0,0H591.12a0,0,0,0,1,0,0v-38A0,0,0,0,1,591.12,380.85Z" fill="#f6cd2f"/><g opacity="0.2"><path d="M591.12,380.85h0a12.67,12.67,0,0,1,12.67,12.67v25.34a0,0,0,0,1,0,0H591.12a0,0,0,0,1,0,0v-38A0,0,0,0,1,591.12,380.85Z"/></g><rect x="591.12" y="370.4" width="3.33" height="34.46" fill="#e6e6e6"/><rect x="594.45" y="386.18" width="2.89" height="18.67" fill="#ccc"/><rect x="433.95" y="262.58" width="164.28" height="31.12" rx="15.56" fill="#c8dbef"/><rect x="442.4" y="371.51" width="4.67" height="47.35" fill="#e6e6e6"/><ellipse cx="757.63" cy="308.82" rx="61.36" ry="62.69" fill="#53b2c1"/><path d="M703.16,312.16C765,387.3,815,305.27,815,305.27,753,237.24,703.16,312.16,703.16,312.16Zm10,1.11s41.79-63.14,92-6.89C805.2,306.38,770.74,369.07,713.17,313.27Z" fill="#5cab7e"/><circle cx="759.41" cy="311.27" r="18.67" fill="#5cab7e"/><circle cx="759.41" cy="311.27" r="8.78" fill="#fff"/><rect x="710.08" y="309.49" width="99.31" height="4.45" transform="translate(90.35 787.4) rotate(-57.71)" fill="#c8dbef"/><rect x="650.47" y="174.77" width="14.23" height="6.67" fill="#53b2c1"/><rect x="655.59" y="229.9" width="5.56" height="45.35" rx="2.78" fill="#53b2c1"/><rect x="655.59" y="294.82" width="5.56" height="45.35" rx="2.78" fill="#53b2c1"/><rect x="650.47" y="602.93" width="14.23" height="6.22" fill="#53b2c1"/><polygon points="257.21 244.17 272.11 230.41 284.87 244.17 272.11 259.19 257.21 244.17" fill="#323232"/><path d="M224.09,523.79l-9.56,65.8c-3.78,28-24.65,27.27-24.65,27.27l-.34,0c-32.88,2.47-17.24-75.76-17.24-75.76a280.3,280.3,0,0,0,4.43-41.51,19.92,19.92,0,0,0-2.31-9.78C168,477.65,160.56,458.67,160.3,458v0C162.07,497.56,145,601.6,145,601.6c-2,16.45-24.26,14.67-24.26,14.67-34.9-.89-19.1-107.72-19.1-107.72,5.8-47,0-128.81,0-128.81l65.12-11.8,36.2,11.8c5.74,14.23,18.74,82.76,18.74,82.76C229.27,494.36,224.09,523.79,224.09,523.79Z" fill="#c8dbef"/><g opacity="0.2"><path d="M190.64,616.27l-1.1.62c-32.88,2.47-17.24-75.76-17.24-75.76a280.3,280.3,0,0,0,4.43-41.51,19.92,19.92,0,0,0-2.31-9.78C168,477.65,160.56,458.67,160.3,458c1.51,3.6,18.29,21.55,28.21,32a19.9,19.9,0,0,1,5.08,17.66C188.09,534.81,174.94,607.81,190.64,616.27Z"/></g><rect x="113.61" y="620.5" width="17.34" height="12.45" fill="#f9d4c5"/><path d="M135.69,656.19h0a14.08,14.08,0,0,1-1,3.57s-3.55-11.7-14-12.14c0,0-8.67-.26-11.12,12.65,0,0-2.11-.58-2.5-5.57,0-.6-.06-1.25,0-2a26.45,26.45,0,0,1,1.6-8.67l3.62-10v-6.44a2.14,2.14,0,0,1,1.34-2v7.31H131v-7.16a2.19,2.19,0,0,1,1,1.84v6.44S137,647.08,135.69,656.19Z" fill="#c8dbef"/><path d="M131,665.18H112.49c-7.21-1.53-5.45-10.19-5.39-10.48.39,5,2.5,5.57,2.5,5.57,2.45-12.91,11.12-12.65,11.12-12.65,10.45.44,14,12.14,14,12.14a14.08,14.08,0,0,0,1-3.57C136.87,665.65,131,665.18,131,665.18Z" fill="#5cab7e"/><rect x="181.19" y="620.5" width="17.78" height="12.45" fill="#f9d4c5"/><path d="M215.2,649c-5.11,3.11-5.56,10-5.56,10a187.28,187.28,0,0,1-32.9-5.33A43.62,43.62,0,0,1,179.41,635s-3.7-11.73,5.11-7.87a6.74,6.74,0,0,0,2.54.55l11.87.17a2.38,2.38,0,0,1,2.32,2.06,7.74,7.74,0,0,1-1.39,5.75A47.5,47.5,0,0,0,215.2,649Z" fill="#c8dbef"/><path d="M221.7,661.81c-12.2,2.43-45-2.86-45-2.86l.09-5.33a187.28,187.28,0,0,0,32.9,5.33s.45-6.89,5.56-10c6.4.54,9.15,3,10.28,5.46A5.27,5.27,0,0,1,221.7,661.81Z" fill="#5cab7e"/><rect x="109.6" y="610.05" width="25.12" height="12.45" rx="6.22" fill="#5cab7e"/><rect x="178.07" y="610.05" width="25.12" height="12.45" rx="6.22" fill="#5cab7e"/><path d="M214.53,372.4c-5.78,8.89-31.34,11.78-31.34,11.78l-20.29.13-52.85.32C94.71,386.18,95.6,376,95.6,376c-3.78-17.34,2.89-82.7,2.89-82.7l-30.68-30C87.6,234.57,112.35,226,112.35,226c14.22-7.6,21.67-10.7,25.49-12,3.06-1,3.78-.83,3.78-.83l26.87,5.29,2.65,1.44,21.16,11.52c8.45,4.67,13.79,15.56,13.79,15.56l15.59,23.85-15.59,56C205.64,336.61,214.53,372.4,214.53,372.4Z" fill="#5cab7e"/><g clip-path="url(#a)"><g opacity="0.2"><polygon points="163.15 394.7 156.92 397.78 155.92 404.66 151.06 399.68 144.21 400.86 147.44 394.7 144.21 388.55 151.06 389.72 155.92 384.74 156.92 391.62 163.15 394.7"/><polygon points="134.35 378.06 128.11 381.14 127.11 388.02 122.26 383.04 115.4 384.21 118.64 378.06 115.4 371.9 122.26 373.08 127.11 368.1 128.11 374.98 134.35 378.06"/><polygon points="136.91 414.54 130.67 417.62 129.67 424.5 124.82 419.52 117.96 420.7 121.2 414.54 117.96 408.39 124.82 409.56 129.67 404.58 130.67 411.46 136.91 414.54"/><polygon points="166.35 367.82 160.12 370.9 159.12 377.78 154.26 372.8 147.41 373.97 150.64 367.82 147.41 361.66 154.26 362.84 159.12 357.86 160.12 364.74 166.35 367.82"/><polygon points="194.52 388.3 188.28 391.38 187.28 398.26 182.43 393.28 175.57 394.46 178.81 388.3 175.57 382.14 182.43 383.32 187.28 378.34 188.28 385.22 194.52 388.3"/><polygon points="192.6 358.22 186.36 361.3 185.36 368.18 180.5 363.2 173.65 364.37 176.89 358.22 173.65 352.06 180.5 353.24 185.36 348.26 186.36 355.14 192.6 358.22"/><polygon points="216.92 356.3 210.68 359.37 209.68 366.26 204.83 361.28 197.97 362.45 201.21 356.3 197.97 350.14 204.83 351.32 209.68 346.34 210.68 353.22 216.92 356.3"/><polygon points="206.68 319.17 200.44 322.25 199.44 329.13 194.59 324.15 187.73 325.33 190.97 319.17 187.73 313.02 194.59 314.19 199.44 309.21 200.44 316.09 206.68 319.17"/><polygon points="177.87 331.97 171.64 335.05 170.64 341.93 165.78 336.95 158.93 338.13 162.16 331.97 158.93 325.82 165.78 326.99 170.64 322.01 171.64 328.9 177.87 331.97"/><polygon points="152.27 347.98 146.03 351.05 145.03 357.94 140.18 352.96 133.33 354.13 136.56 347.98 133.33 341.82 140.18 343 145.03 338.01 146.03 344.9 152.27 347.98"/><polygon points="126.67 337.73 120.43 340.81 119.43 347.69 114.58 342.71 107.72 343.89 110.96 337.73 107.72 331.58 114.58 332.75 119.43 327.77 120.43 334.66 126.67 337.73"/><polygon points="114.51 361.42 108.27 364.5 107.27 371.38 102.42 366.4 95.56 367.57 98.8 361.42 95.56 355.26 102.42 356.44 107.27 351.46 108.27 358.34 114.51 361.42"/><polygon points="97.86 337.73 91.63 340.81 90.63 347.69 85.77 342.71 78.92 343.89 82.16 337.73 78.92 331.58 85.77 332.75 90.63 327.77 91.63 334.66 97.86 337.73"/><polygon points="113.23 314.05 106.99 317.13 105.99 324.01 101.14 319.03 94.28 320.21 97.52 314.05 94.28 307.9 101.14 309.07 105.99 304.09 106.99 310.97 113.23 314.05"/><polygon points="110.03 286.53 103.79 289.61 102.79 296.49 97.94 291.51 91.08 292.68 94.32 286.53 91.08 280.37 97.94 281.55 102.79 276.57 103.79 283.45 110.03 286.53"/><polygon points="97.86 257.08 91.63 260.16 90.63 267.05 85.77 262.06 78.92 263.24 82.16 257.08 78.92 250.93 85.77 252.1 90.63 247.13 91.63 254.01 97.86 257.08"/><polygon points="163.15 263.49 156.92 266.56 155.92 273.45 151.06 268.47 144.21 269.64 147.44 263.49 144.21 257.33 151.06 258.51 155.92 253.53 156.92 260.41 163.15 263.49"/><polygon points="131.79 257.08 125.55 260.16 124.55 267.05 119.7 262.06 112.84 263.24 116.08 257.08 112.84 250.93 119.7 252.1 124.55 247.13 125.55 254.01 131.79 257.08"/><polygon points="146.51 326.21 140.27 329.29 139.27 336.17 134.42 331.19 127.56 332.37 130.8 326.21 127.56 320.06 134.42 321.23 139.27 316.25 140.27 323.13 146.51 326.21"/><polygon points="165.71 307.01 159.48 310.09 158.48 316.97 153.62 311.99 146.77 313.17 150 307.01 146.77 300.86 153.62 302.03 158.48 297.05 159.48 303.93 165.71 307.01"/><polygon points="202.2 232.76 195.96 235.84 194.96 242.72 190.11 237.74 183.25 238.92 186.49 232.76 183.25 226.61 190.11 227.78 194.96 222.8 195.96 229.69 202.2 232.76"/><polygon points="216.92 262.21 210.68 265.28 209.68 272.17 204.83 267.19 197.97 268.36 201.21 262.21 197.97 256.05 204.83 257.23 209.68 252.25 210.68 259.13 216.92 262.21"/><polygon points="172.75 196.28 166.52 199.36 165.52 206.24 160.66 201.26 153.81 202.43 157.04 196.28 153.81 190.12 160.66 191.3 165.52 186.32 166.52 193.2 172.75 196.28"/><polygon points="146.51 206.52 140.27 209.6 139.27 216.48 134.42 211.5 127.56 212.68 130.8 206.52 127.56 200.36 134.42 201.54 139.27 196.56 140.27 203.44 146.51 206.52"/><polygon points="126.67 230.84 120.43 233.92 119.43 240.8 114.58 235.82 107.72 237 110.96 230.84 107.72 224.69 114.58 225.86 119.43 220.88 120.43 227.76 126.67 230.84"/><polygon points="166.35 220.6 160.12 223.68 159.12 230.56 154.26 225.58 147.41 226.76 150.64 220.6 147.41 214.44 154.26 215.62 159.12 210.64 160.12 217.52 166.35 220.6"/><polygon points="152.27 237.24 146.03 240.32 145.03 247.2 140.18 242.22 133.33 243.4 136.56 237.24 133.33 231.09 140.18 232.26 145.03 227.28 146.03 234.16 152.27 237.24"/><polygon points="184.91 286.53 178.68 289.61 177.68 296.49 172.82 291.51 165.97 292.68 169.21 286.53 165.97 280.37 172.82 281.55 177.68 276.57 178.68 283.45 184.91 286.53"/><polygon points="136.91 291.65 130.67 294.73 129.67 301.61 124.82 296.63 117.96 297.81 121.2 291.65 117.96 285.49 124.82 286.67 129.67 281.69 130.67 288.57 136.91 291.65"/><polygon points="187.47 257.08 181.24 260.16 180.24 267.05 175.38 262.06 168.53 263.24 171.77 257.08 168.53 250.93 175.38 252.1 180.24 247.13 181.24 254.01 187.47 257.08"/><polygon points="197.23 337.73 193.42 339.61 192.81 343.81 189.84 340.77 185.66 341.49 187.64 337.73 185.66 333.98 189.84 334.69 192.81 331.65 193.42 335.86 197.23 337.73"/></g></g><g opacity="0.2"><path d="M162.9,384.31l-52.85.32C94.71,386.18,95.6,376,95.6,376c-3.78-17.34,2.89-82.7,2.89-82.7l4,4.45s21.79-19.79,19.56-38.68c0,0,8.23,5.78-2.66,33.34,0,0-20.9,50-15.12,66C104.27,358.4,110.48,380,162.9,384.31Z"/></g><g opacity="0.2"><path d="M206.09,326.83s-9.34-37.79-1.78-70.92c0,0,6,37.15,9.89,41.81Z"/></g><path d="M273.6,265.3,117.28,415.44a8.72,8.72,0,0,1-12.37-.31l-9.44-10a8.71,8.71,0,0,1,.28-12.21l9.71-9.41,146.13-141.6a6.26,6.26,0,0,1,7.49-.93,38.64,38.64,0,0,1,10.14,8.52l.6.73a38.68,38.68,0,0,1,5.11,8.43A5.92,5.92,0,0,1,273.6,265.3Z" fill="#f6cd2f"/><g opacity="0.2"><path d="M273.6,265.3,117.28,415.44a8.72,8.72,0,0,1-12.37-.31l-9.44-10a8.71,8.71,0,0,1,.28-12.21l9.71-9.41,6,5.4a10.57,10.57,0,0,0,14.43-.2l144-138.48a38.68,38.68,0,0,1,5.11,8.43A5.92,5.92,0,0,1,273.6,265.3Z"/></g><rect x="440.4" y="387.52" width="2" height="31.35" fill="#ccc"/><ellipse cx="339.58" cy="601.6" rx="65.25" ry="65.8" fill="#5cab7e"/><path d="M380.37,612.05c0-6.5-5.41-11.83-12.33-12.4-1.65-5.17-6.85-8.94-13-8.94a14.57,14.57,0,0,0-5.07.9c-2.78-7.24-10.66-12.46-19.94-12.46-11.6,0-21,8.16-21,18.23a16.28,16.28,0,0,0,.17,2.33c-6.62.83-11.73,6-11.73,12.34a12.55,12.55,0,0,0,8.78,11.65h0a14.64,14.64,0,0,0,4.77.8,14,14,0,0,0,2.27-.18,35.38,35.38,0,0,1,5.81-.46l46.75.6c.32,0,.65,0,1,0l.63,0,1.15,0,.06-.12C375.27,623.56,380.37,618.35,380.37,612.05Z" fill="#fff"/><path d="M296.25,408l30.32,52.46c4.23,15.11-8.66,16.45-8.66,16.45h-64c-14.23-2-8.45-16.23-8.45-16.23l32.32-52.91a10.77,10.77,0,0,1,9.31-5.15h0A10.77,10.77,0,0,1,296.25,408Z" fill="#f6cd2f"/><g opacity="0.44"><path d="M286.23,407.53h0a6.1,6.1,0,0,1,5.27,3l29.3,49.82a8.6,8.6,0,0,1-.14,9h0a8.62,8.62,0,0,1-7.28,4H258a8.43,8.43,0,0,1-8.18-6.38h0a8.44,8.44,0,0,1,1-6.4L281,410.48A6.1,6.1,0,0,1,286.23,407.53Z" fill="#ebebeb"/></g><path d="M399.86,359.51l-11-17.24a45.55,45.55,0,0,0,.62-7.44,44.91,44.91,0,1,0-7.39,24.68Z" fill="#c8dbef"/><path d="M248.54,285.26c-2.78-4.79-7.72-14.21-1.33-10.67,0,0-3.11-10.45,5.56-.78,0,0-4.67-13.23,4.45-7.45,0,0-1.55-6.15,2.09-3.28a8.56,8.56,0,0,1,3,4.62c.81,3.11,1.4,8.95-1.07,18.19,0,0-16.83,59.39-39.53,48.94,0,0-7.8-2.89-12.14-8L247.87,290A3.88,3.88,0,0,0,248.54,285.26Z" fill="#f9d4c5"/><rect x="231.04" y="305.69" width="1" height="6.95" fill="#f4b098"/><path d="M172.57,367.12a4.79,4.79,0,0,1-1.83-.5c-.45,2.89-3.78,2.89-3.78,2.89.22,4-5.79,3.77-5.79,3.77-2.68,5.78-33.78-13.55-33.78-13.55-48.24-17.56-78.25-43.79-78.25-43.79-7.64-6.44,4.93-26.71,14-39.25,4.37-6.07,7.9-10.33,7.9-10.33l27.5,26.9-4.74,4.84L88,303.93C82.71,310.38,135,342.84,135,342.84c5.11,2.44,19.12-2.67,19.12-2.67a24.1,24.1,0,0,1,9.25-1.92,5.94,5.94,0,0,1,2.7.71l2.84,1.53a1.66,1.66,0,0,1,0,2.92c-2.43,1.22-6,.68-6,.68a6.38,6.38,0,0,0-5.48,1.13,1.45,1.45,0,0,0-.12,2.17L174,363.87A1.9,1.9,0,0,1,172.57,367.12Z" fill="#f9d4c5"/><path d="M98.49,293.26l-4.74,4.84c-5.12-3.62-24.41-17.25-30.66-21.41,4.37-6.07,7.9-10.33,7.9-10.33Z" fill="#f4b098"/><path d="M161.48,230A30.74,30.74,0,0,1,137.84,214c3.06-1,3.78-.83,3.78-.83l26.87,5.29,2.65,1.44C172.42,231.1,161.48,230,161.48,230Z" fill="#c8dbef"/><path d="M147.84,188.48l-6.45,25.64s10.83,16.34,24.34,10.67a4.35,4.35,0,0,0,2.66-3.85l.46-11.85Z" fill="#f9d4c5"/><path d="M168.85,209.09l-.36,9.41s-9.24,1.21-14.39-12.7C154.1,205.8,159.19,210.74,168.85,209.09Z" fill="#f4b098"/><path d="M147.84,163.21h34.24a0,0,0,0,1,0,0v29.12A17.12,17.12,0,0,1,165,209.45h0a17.12,17.12,0,0,1-17.12-17.12V163.21a0,0,0,0,1,0,0Z" fill="#f9d4c5"/><path d="M145.84,196.42s-6.37-3.2-5.52-14.09c0,0-13.59-21.08,5.52-24.77,0,0,.37-11.58,15.64-7.63a28.24,28.24,0,0,0,11.09-.83s17.06-5.45,20.4,5c0,0,4.22,17.68-10.89,18,0,0-6.9-.61-9.56-6.84,0,0-2,7.9-7.56,6.84,0,0-3.34,0-7.56-2.84,0,0-1,8.67-8.4,13.12l-1.16,6.15Z" fill="#323232"/><circle cx="144.73" cy="182.33" r="6.89" fill="#f9d4c5"/><rect x="249.49" y="273.91" width="1" height="12.07" transform="translate(-100.8 146.49) rotate(-27.41)" fill="#f4b098"/><rect x="258.63" y="266.03" width="1" height="11.33" transform="translate(-76.45 103.32) rotate(-19.71)" fill="#f4b098"/><rect x="254.49" y="273.18" width="1" height="8.48" transform="translate(-107.58 174.82) rotate(-31.61)" fill="#f4b098"/><rect x="153.79" y="358.47" width="1" height="18.01" transform="translate(-226.01 248.25) rotate(-49.82)" fill="#f4b098"/><rect x="160.12" y="355.22" width="1" height="17.1" transform="translate(-216.76 238.43) rotate(-47.8)" fill="#f4b098"/><rect x="164.39" y="352.79" width="1" height="16.3" transform="translate(-208.82 227.5) rotate(-45.8)" fill="#f4b098"/><path d="M610.75,412.42l-1.49,29.73L606.41,499a8.34,8.34,0,0,1-8.33,7.92H439.22a4.87,4.87,0,0,1-4.86-4.56l-.7-10.88-4.42-68.74a7.18,7.18,0,0,1,7.16-7.64h74.47c.44-9.11,7.85-10.22,7.85-10.22h84.83A7.21,7.21,0,0,1,610.75,412.42Z" fill="#f6cd2f"/><g opacity="0.2"><path d="M609.26,442.15,606.41,499a8.34,8.34,0,0,1-8.33,7.92H439.22a4.87,4.87,0,0,1-4.86-4.56l-.7-10.88c10.63,2.36,40.27,6.38,87.45-.27a104.06,104.06,0,0,0,52.61-23.58C585.24,457.87,599.37,446.84,609.26,442.15Z" fill="#fff"/></g><path d="M464.18,453.54s35.13,11.79,54-18.45c0,0,22.23,32.24,54.47,18.68,0,0,22.23,120.08-54.24,121.29C518.43,575.06,448.62,580.7,464.18,453.54Z" fill="#c8dbef"/><g opacity="0.2"><path d="M469.07,460.88s30.31,8.25,49.73-16.1c0,0,17,23.66,50.09,15.43,0,0,16.23,106-51.8,109.38,0,0-48.46,2-50.24-77.59Z" fill="#fff"/></g><path d="M542.49,495.56H495a2.61,2.61,0,0,0-2.61,2.62v38.34a2.61,2.61,0,0,0,2.61,2.61h47.46a2.61,2.61,0,0,0,2.61-2.61V498.18A2.61,2.61,0,0,0,542.49,495.56Zm-20.84,20.91v9.32a2.89,2.89,0,0,1-5.78,0v-9.32a5.22,5.22,0,1,1,5.78,0Z" fill="#fff"/><path d="M497.33,495.56h5.94V491.8a15.58,15.58,0,0,1,15.58-15.58h0a15.59,15.59,0,0,1,15.58,15.58v3.76h5.89v-5.4a21.5,21.5,0,0,0-21.5-21.5h0a21.5,21.5,0,0,0-21.49,21.5Z" fill="#fff"/><path d="M747.09,623.14c-4.12-18.69-26-29.76-48.81-24.73s-38,24.26-33.91,43,26,29.75,48.81,24.72S751.21,641.82,747.09,623.14Zm-37.36,27.29C695.6,653.54,682.37,648,680.18,638s7.49-20.53,21.62-23.65,27.36,2.44,29.55,12.39S723.86,647.31,709.73,650.43Z" fill="#f6cd2f"/><path d="M693.83,605.16,660.09,426.59a7.94,7.94,0,0,1,6.25-9.26h0a7.93,7.93,0,0,1,9.36,6.37l32.57,179.68Z" fill="#f6cd2f"/><path d="M341.47,349.39a1,1,0,0,1-.72-.3l-13.1-13.56a1,1,0,0,1,0-1.42,1,1,0,0,1,1.41,0l12.37,12.8,27.29-29a1,1,0,0,1,1.42,0,1,1,0,0,1,0,1.41l-28,29.79a1,1,0,0,1-.72.31Z" fill="#fff"/><path d="M283,450.65h7.34l1.44-23.21a5.15,5.15,0,0,0-5.14-5.46h0a5.15,5.15,0,0,0-5.14,5.48Z" fill="#fff"/><circle cx="286.56" cy="459.99" r="6" fill="#fff"/><path d="M467.87,274.47l1.2,2.14L465.41,278l3.66,1.36-1.23,2.18-3-2.4.56,3.87h-2.45l.5-3.87-3,2.46-1.28-2.27,3.63-1.36-3.63-1.31,1.23-2.18,3.12,2.4-.53-3.9h2.48l-.59,3.9Z" fill="#fff"/><path d="M488.24,274.47l1.2,2.14L485.79,278l3.65,1.36-1.23,2.18-3-2.4.56,3.87h-2.45l.51-3.87-3,2.46-1.28-2.27,3.62-1.36-3.62-1.31,1.22-2.18,3.12,2.4-.53-3.9h2.48l-.59,3.9Z" fill="#fff"/><path d="M508.62,274.47l1.2,2.14L506.16,278l3.66,1.36-1.23,2.18-3-2.4.56,3.87h-2.45l.5-3.87-3,2.46-1.28-2.27,3.63-1.36-3.63-1.31,1.23-2.18,3.12,2.4-.53-3.9h2.48l-.59,3.9Z" fill="#fff"/><path d="M529,274.47l1.2,2.14L526.54,278l3.65,1.36L529,281.51l-3-2.4.56,3.87H524l.51-3.87-3,2.46-1.28-2.27,3.62-1.36-3.62-1.31,1.22-2.18,3.12,2.4L524,273h2.48l-.59,3.9Z" fill="#fff"/><path d="M549.36,274.47l1.2,2.14L546.91,278l3.65,1.36-1.22,2.18-3-2.4.56,3.87H544.4l.51-3.87-3,2.46-1.28-2.27,3.63-1.36-3.63-1.31,1.23-2.18,3.12,2.4-.54-3.9h2.48l-.58,3.9Z" fill="#fff"/><path d="M569.74,274.47l1.2,2.14L567.28,278l3.66,1.36-1.23,2.18-3-2.4.56,3.87h-2.45l.5-3.87-3,2.46L561,279.3l3.63-1.36L561,276.63l1.23-2.18,3.12,2.4-.53-3.9h2.48l-.59,3.9Z" fill="#fff"/><g opacity="0.44"><path d="M636.47,253.11V341L497.31,155.88h60.25a18.52,18.52,0,0,0,7-1.36Z" fill="#ebebeb"/></g><g opacity="0.44"><path d="M636.47,418.09V577.63a27.53,27.53,0,0,1-27.53,27.53H579L393.71,306.21V163a27.53,27.53,0,0,1,27.53-27.53h11.58Z" fill="#ebebeb"/></g><path d="M342.8,262.58A84.15,84.15,0,0,0,388.75,249a83.32,83.32,0,0,1-50.95,17.38c-47,0-85-39.06-85-87.25a87.82,87.82,0,0,1,36.42-71.6,87.56,87.56,0,0,0-32,67.93C257.22,223.57,295.53,262.58,342.8,262.58Z" fill="#f6cd2f"/><g opacity="0.2"><path d="M342.8,262.58A84.15,84.15,0,0,0,388.75,249a83.32,83.32,0,0,1-50.95,17.38c-47,0-85-39.06-85-87.25a87.82,87.82,0,0,1,36.42-71.6,87.56,87.56,0,0,0-32,67.93C257.22,223.57,295.53,262.58,342.8,262.58Z"/></g><path d="M413.5,175.44a72.43,72.43,0,0,1-22.25,52.42c44.21-60.06-6.65-102.66-6.65-102.66-49.54-38-94.36,2.22-94.84,2.65a70,70,0,0,1,53-24.39C381.85,103.46,413.5,135.69,413.5,175.44Z" fill="#f6cd2f"/><g opacity="0.2"><path d="M413.5,175.44a72.43,72.43,0,0,1-22.25,52.42c44.21-60.06-6.65-102.66-6.65-102.66-49.54-38-94.36,2.22-94.84,2.65a70,70,0,0,1,53-24.39C381.85,103.46,413.5,135.69,413.5,175.44Z"/></g><path d="M342.8,88.29a84.29,84.29,0,0,0-53.61,19.22,87.56,87.56,0,0,0-32,67.93c0,48.13,38.31,87.14,85.58,87.14A84.15,84.15,0,0,0,388.75,249a87.48,87.48,0,0,0,39.64-73.54C428.39,127.31,390.07,88.29,342.8,88.29Zm0,159.13c-39,0-70.69-32.23-70.69-72a72.42,72.42,0,0,1,17.65-47.58h0a70,70,0,0,1,53-24.39c39.05,0,70.7,32.23,70.7,72a72.39,72.39,0,0,1-22.25,52.42A69.77,69.77,0,0,1,342.8,247.42Z" fill="#f6cd2f"/><g opacity="0.44"><path d="M413.5,175.44a72.39,72.39,0,0,1-22.25,52.42,69.77,69.77,0,0,1-48.45,19.56c-39,0-70.69-32.23-70.69-72a72.42,72.42,0,0,1,17.65-47.58h0a70,70,0,0,1,53-24.39C381.85,103.46,413.5,135.69,413.5,175.44Z" fill="#ebebeb"/></g><path d="M624.07,434.33h42.49a0,0,0,0,1,0,0v14.76a0,0,0,0,1,0,0H624.07a7.38,7.38,0,0,1-7.38-7.38v0a7.38,7.38,0,0,1,7.38-7.38Z" transform="matrix(0.99, -0.16, 0.16, 0.99, -62.97, 109.54)" fill="#f6cd2f"/><path d="M630.74,475.23h42.49a0,0,0,0,1,0,0V490a0,0,0,0,1,0,0H630.74a7.38,7.38,0,0,1-7.38-7.38v0a7.38,7.38,0,0,1,7.38-7.38Z" transform="matrix(0.99, -0.16, 0.16, 0.99, -69.5, 111.16)" fill="#f6cd2f"/><path d="M637.49,453.12h30a0,0,0,0,1,0,0v14.76a0,0,0,0,1,0,0h-30a7.38,7.38,0,0,1-7.38-7.38v0A7.38,7.38,0,0,1,637.49,453.12Z" transform="translate(-65.92 110.95) rotate(-9.3)" fill="#f6cd2f"/></svg>